<?xml version="1.0" encoding="UTF-8" standalone="no"?>
<!-- Created with Inkscape (http://www.inkscape.org/) -->

<svg
   width="180mm"
   height="140mm"
   viewBox="0 0 180 140"
   version="1.1"
   id="svg5"
   xml:space="preserve"
   inkscape:version="1.2.2 (732a01da63, 2022-12-09, custom)"
   sodipodi:docname="Capybara.svg"
   xmlns:inkscape="http://www.inkscape.org/namespaces/inkscape"
   xmlns:sodipodi="http://sodipodi.sourceforge.net/DTD/sodipodi-0.dtd"
   xmlns="http://www.w3.org/2000/svg"
   xmlns:svg="http://www.w3.org/2000/svg"><sodipodi:namedview
     id="namedview7"
     pagecolor="#000000"
     bordercolor="#000000"
     borderopacity="0.25"
     inkscape:showpageshadow="2"
     inkscape:pageopacity="0"
     inkscape:pagecheckerboard="0"
     inkscape:deskcolor="#d1d1d1"
     inkscape:document-units="mm"
     showgrid="false"
     inkscape:zoom="1.0633188"
     inkscape:cx="424.14374"
     inkscape:cy="257.21356"
     inkscape:window-width="1846"
     inkscape:window-height="1006"
     inkscape:window-x="74"
     inkscape:window-y="27"
     inkscape:window-maximized="1"
     inkscape:current-layer="layer1" /><defs
     id="defs2" /><g
     inkscape:label="Layer 1"
     inkscape:groupmode="layer"
     id="layer1"><path
       style="fill:#ffffff;fill-opacity:1;stroke-width:0.264583"
       d="m 79.370334,20.911242 c 11.690905,4.987258 27.482986,15.668694 31.087036,17.224217 3.60406,1.555525 6.07094,1.040122 8.28905,2.415767 2.21812,1.375645 12.32069,16.334468 15.98849,22.185209 1.8339,2.92537 10.4628,13.62024 11.83656,13.62394 2.56524,0.007 4.42976,-2.7546 5.64594,-1.14823 1.07997,1.42645 1.99045,5.20243 2.0755,7.2675 0.0572,1.38947 5.28407,9.62291 6.29955,11.59022 2.03096,3.93462 10.83703,23.473855 9.5426,27.362365 -1.29444,3.88852 -3.09627,7.08502 -7.78973,7.36036 -4.69346,0.27533 -14.53821,-0.0508 -19.19314,-4.43378 -4.65493,-4.38299 -18.69502,-21.16908 -21.10893,-25.127625 -2.41392,-3.95856 -2.5942,-4.27585 -5.21688,-4.2824 -2.62268,-0.007 -4.6423,1.4797 -4.65867,4.36614 -0.0164,2.886435 1.93848,20.887475 4.12747,22.267375 2.189,1.3799 9.18409,2.34491 9.11707,4.19439 -0.067,1.84947 -3.49881,2.98451 -9.37777,2.40696 -5.87896,-0.57754 -10.52607,-0.20069 -11.3915,-2.77682 -0.86544,-2.57614 0.92411,-7.2307 -2.03939,-12.25913 -2.963487,-5.02843 -5.087841,-11.40104 -8.711521,-14.953485 -3.62368,-3.55245 -3.50233,-3.9138 -8.160828,-6.5297 -4.658495,-2.61591 -8.044846,-4.72889 -19.670249,-7.52116 -11.625403,-2.79227 -11.850923,-3.31919 -17.509347,-2.25475 -5.658424,1.06443 -13.202705,11.77062 -12.662577,15.01282 0.540131,3.242205 4.327091,11.236125 6.71884,12.265995 2.391746,1.02987 11.117188,3.13359 10.958337,4.71683 -0.15885,1.58324 -2.817484,2.25131 -9.465746,2.07537 -6.64826,-0.17595 -7.104581,-0.79325 -8.557011,-2.23483 -1.452428,-1.44157 0.0573,1.4414 -5.861823,-8.96486 C 23.762542,94.353675 18.959629,85.373885 19.045798,82.807355 c 0.08617,-2.56654 2.340522,-3.14939 1.739908,-9.36939 -0.436172,-4.51701 -3.081775,-7.34773 -5.304998,-11.61046 -3.073602,-5.89322 -4.300469,-8.699867 -4.659003,-10.643781 -0.358535,-1.943914 0.151262,-3.025094 0.550989,-5.467378 0.799454,-4.884566 6.053509,-13.547242 13.97705,-18.838044 8.084367,-5.431645 17.728644,-8.511294 27.282264,-9.43909 9.55362,-0.927796 19.016584,0.296261 26.738326,3.47203 z"
       id="path350"
       sodipodi:nodetypes="cssssssssssscssssssssssssssssssssscsc" /><path
       style="fill:#ffffff;fill-opacity:1;stroke-width:0.264583"
       d="m 149.80088,96.598075 c 0,0 0.96493,1.69483 1.46208,2.18232 2.40842,2.361615 1.94966,1.431725 3.41215,2.878055 0.84769,0.83833 0.5582,2.49484 0.5582,2.49484 0,0 -1.23366,-0.28442 -1.7664,-0.75538 -1.16061,-1.02603 -1.31985,-1.45514 -2.08886,-2.49445 -0.56029,-0.75722 -0.72171,-1.151855 -1.22634,-2.480885 -0.01,-0.0256 -0.0163,-0.0521 -0.024,-0.0783 -0.21725,-0.73454 -0.32682,-1.7462 -0.32682,-1.7462 z"
       id="path1809"
       sodipodi:nodetypes="csscsssscc" /><path
       style="fill:#000000;stroke-width:0.0415625"
       d="m 585.67781,393.3487 c -2.11028,-0.60969 -3.83041,-1.32624 -4.92531,-2.05171 -0.51587,-0.34182 -1.37608,-1.09871 -2.48779,-2.18897 -1.69418,-1.6615 -2.44803,-2.58398 -4.50035,-5.50703 -0.53768,-0.76579 -1.24506,-1.75706 -1.57197,-2.20281 -1.87802,-2.5608 -2.5155,-3.80739 -4.21895,-8.25016 -0.61238,-1.59717 -0.86013,-2.48277 -1.20341,-4.30172 -0.23747,-1.25824 -0.54098,-3.28695 -0.51559,-3.44629 0.009,-0.0583 0.23175,0.28058 0.6918,1.05377 1.53895,2.58646 2.80357,4.51799 3.86585,5.90455 0.77904,1.01687 4.59501,4.62313 6.55322,6.19309 0.8197,0.65718 1.37712,1.05731 2.70565,1.94218 0.63781,0.42481 1.35849,0.92837 1.6015,1.11903 1.28558,1.00859 3.20541,2.85908 3.64688,3.51516 0.77614,1.15344 1.23834,2.54348 1.46858,4.41663 0.13356,1.08665 0.0245,4.07932 -0.14841,4.07079 -0.026,-10e-4 -0.4588,-0.12121 -0.9617,-0.26651 z"
       id="path235"
       transform="scale(0.26458333)" /></g></svg>
